<?xml version="1.0" encoding="UTF-8" standalone="no"?>
<svg
   xmlns:dc="http://purl.org/dc/elements/1.1/"
   xmlns:cc="http://creativecommons.org/ns#"
   xmlns:rdf="http://www.w3.org/1999/02/22-rdf-syntax-ns#"
   xmlns:svg="http://www.w3.org/2000/svg"
   xmlns="http://www.w3.org/2000/svg"
   id="svg885"
   version="1.1"
   width="48"
   viewBox="0 0 24 24"
   height="48"
   fill="#000000">
  <metadata
     id="metadata891">
    <rdf:RDF>
      <cc:Work
         rdf:about="">
        <dc:format>image/svg+xml</dc:format>
        <dc:type
           rdf:resource="http://purl.org/dc/dcmitype/StillImage" />
        <dc:title></dc:title>
      </cc:Work>
    </rdf:RDF>
  </metadata>
  <defs
     id="defs889" />
  <path
     id="path881"
     fill="none"
     d="M0 0h24v24H0z" />
  <g
     id="g950">
    <path
       id="path883"
       d="m 9.6606444,1.1445314 c -4.416,0 -7.9999998,3.5839998 -7.9999998,8.0000002 0,4.4159994 3.5839998,8.0000004 7.9999998,8.0000004 1.0905046,0 2.1295586,-0.220539 3.0771486,-0.616211 l 1.695312,6.327148 2.963868,-2.963867 1.815429,1.81543 1.979492,-1.979493 -1.815429,-1.815429 2.96289,-2.96289 -5.895507,-1.580079 c 0.766412,-1.227286 1.216796,-2.672049 1.216796,-4.2246094 0,-4.4160004 -3.584,-8.0000002 -7.9999996,-8.0000002 z m 0,1.5996094 c 3.5279996,0 6.4003906,2.8723903 6.4003906,6.4003908 0,1.4173804 -0.469518,2.7242104 -1.25293,3.7861334 l -3.268554,-0.875977 0.77832,2.904297 c -0.810692,0.372208 -1.708598,0.585938 -2.6572266,0.585938 -3.528,0 -6.4003904,-2.872392 -6.4003904,-6.4003914 0,-3.5280005 2.8723904,-6.4003908 6.4003904,-6.4003908 z M 8.8608399,5.1445316 v 1.599609 h 1.5996091 v -1.599609 z m 0,3.200195 V 13.144532 H 10.460449 V 8.3447266 Z"
       style="stroke-width:1" />
  </g>
</svg>
